C:\Users\r0593348\3dpredictsim\Results\batch_windlass\Pog_s1_tmt_bCst_d05_k1500_WL20_ig24_pas_GRF.mot
nRows=12
nColumns=19

name C:\Users\r0593348\3dpredictsim\Results\batch_windlass\Pog_s1_tmt_bCst_d05_k1500_WL20_ig24_pas_GRF.mot
datacolumns 19
datarows 12
range 0.5374710693 0.6557147045
endheader
time 	ground_force_vx	ground_force_vy	ground_force_vz	ground_force_px	ground_force_py	ground_force_pz	1_ground_force_vx	1_ground_force_vy	1_ground_force_vz	1_ground_force_px	1_ground_force_py	1_ground_force_pz	ground_torque_x	ground_torque_y	ground_torque_z	1_ground_torque_x	1_ground_torque_y	1_ground_torque_z
        0.5374710693	       82.5379945521	      405.9978476572	        3.2316976986	        0.3380411145	        0.0000000000	        0.0326619708	      -95.0796577885	       77.9636074235	      -31.4218512319	        0.8050522030	        0.0000000000	       -0.0427033395	        0.0000000000	        0.0000000000	        0.0000000000	        0.0000000000	        0.0000000000	        0.0000000000	
        0.5482204907	       52.4052741100	      307.7736901953	       12.7064761216	        0.3448203060	        0.0000000000	        0.0297770756	     -147.1178303917	      163.6733119633	      -73.5145712134	        0.8152224805	        0.0000000000	       -0.0415678157	        0.0000000000	        0.0000000000	        0.0000000000	        0.0000000000	        0.0000000000	        0.0000000000	
        0.5589699121	       22.0907837769	      204.0545319634	       13.9810697837	        0.3570557522	        0.0000000000	        0.0234788145	      -71.3531112990	      376.8362667884	      -28.0256391848	        0.8290730945	        0.0000000000	       -0.0422250172	        0.0000000000	        0.0000000000	        0.0000000000	        0.0000000000	        0.0000000000	        0.0000000000	
        0.5697193335	        3.4283353053	      151.1677964417	       13.4089710719	        0.3655069526	        0.0000000000	        0.0182977046	      -68.5841236117	      626.2209209578	        5.4598438924	        0.8368048798	        0.0000000000	       -0.0435194284	        0.0000000000	        0.0000000000	        0.0000000000	        0.0000000000	        0.0000000000	        0.0000000000	
        0.5804687548	       -3.1942412924	      117.3005604696	       11.8635284336	        0.3655549853	        0.0000000000	        0.0182815474	      -93.2363826556	      814.0641721877	       14.6218180010	        0.8436327045	        0.0000000000	       -0.0440757290	        0.0000000000	        0.0000000000	        0.0000000000	        0.0000000000	        0.0000000000	        0.0000000000	
        0.5912181762	      -11.9021991583	       74.8693966597	        9.7264412700	        0.3653572960	        0.0000000000	        0.0182567847	     -120.4913467605	      923.4592084907	       16.4715293809	        0.8515806239	        0.0000000000	       -0.0439047803	        0.0000000000	        0.0000000000	        0.0000000000	        0.0000000000	        0.0000000000	        0.0000000000	
        0.6019675976	      -10.8400147282	       26.1787054837	        4.3422078138	        0.3651894021	        0.0000000000	        0.0181089504	     -126.0556206084	      954.3673867793	       15.1281409164	        0.8591536373	        0.0000000000	       -0.0432356620	        0.0000000000	        0.0000000000	        0.0000000000	        0.0000000000	        0.0000000000	        0.0000000000	
        0.6127170190	        0.2025667357	       -0.2027438140	       -0.0088171011	        0.0000000000	        0.0000000000	        0.0000000000	     -115.2420068234	      915.0564295582	       13.9076896271	        0.8634669448	        0.0000000000	       -0.0426875965	        0.0000000000	        0.0000000000	        0.0000000000	        0.0000000000	        0.0000000000	        0.0000000000	
        0.6234664404	        0.0005057192	       -0.0004168628	        0.0000152814	        0.0000000000	        0.0000000000	        0.0000000000	      -96.9693390394	      850.9552063076	       14.3979015692	        0.8664903456	        0.0000000000	       -0.0422888271	        0.0000000000	        0.0000000000	        0.0000000000	        0.0000000000	        0.0000000000	        0.0000000000	
        0.6342158618	        0.0001636694	       -0.0001168767	        0.0000084176	        0.0000000000	        0.0000000000	        0.0000000000	      -81.6854768101	      790.0124090518	       14.9406534688	        0.8694113130	        0.0000000000	       -0.0420256921	        0.0000000000	        0.0000000000	        0.0000000000	        0.0000000000	        0.0000000000	        0.0000000000	
        0.6449652832	        0.0007296959	       -0.0004673052	        0.0000458267	        0.0000000000	        0.0000000000	        0.0000000000	      -68.7920662332	      740.1113000937	       15.4858821378	        0.8722959607	        0.0000000000	       -0.0418703886	        0.0000000000	        0.0000000000	        0.0000000000	        0.0000000000	        0.0000000000	        0.0000000000	
        0.6557147045	        0.0099082558	       -0.0058299427	        0.0006996686	        0.0000000000	        0.0000000000	        0.0000000000	      -57.2661706683	      699.8499286711	       16.8115502859	        0.8753495703	        0.0000000000	       -0.0417874016	        0.0000000000	        0.0000000000	        0.0000000000	        0.0000000000	        0.0000000000	        0.0000000000	
